<?xml version="1.0" encoding="iso-8859-1"?>
<!-- Generator: Adobe Illustrator 19.0.0, SVG Export Plug-In . SVG Version: 6.00 Build 0)  -->
<svg version="1.1" id="Capa_1" xmlns="http://www.w3.org/2000/svg" xmlns:xlink="http://www.w3.org/1999/xlink" x="0px" y="0px"
	 viewBox="0 0 511.999 511.999" style="enable-background:new 0 0 511.999 511.999;" xml:space="preserve">
<path style="fill:#FEDA44;" d="M485.086,344.605h-6.483c-30.449,0-56.86-20.142-65.949-49.203
	c-10.868-34.75-42.673-58.116-79.06-58.116H181.211c-36.278,0-68.941,23.129-79.806,57.742
	c-9.307,29.647-36.459,49.576-67.521,49.576h-6.969c-10.722,0-19.414-8.692-19.414-19.414l0,0c0-10.722,8.692-19.414,19.414-19.414
	h7.251c13.892,0,26.001-9.131,30.194-22.375c7.964-25.156,23.529-46.644,44.98-62.072c21.004-15.105,46.403-22.872,72.275-22.872
	h150.717c25.874,0,51.275,7.769,72.279,22.878c21.448,15.428,37.011,36.914,44.974,62.068c4.192,13.243,16.299,22.373,30.19,22.373
	h5.312c10.722,0,19.414,8.692,19.414,19.414l0,0C504.5,335.913,495.808,344.605,485.086,344.605z"/>
<g>
	<path style="fill:#FF9911;" d="M35,325.191c0-10.722,8.692-19.414,19.414-19.414h7.251c13.892,0,26.001-9.131,30.194-22.375
		c7.963-25.156,23.529-46.644,44.98-62.072c21.004-15.105,46.403-22.872,72.275-22.872h-27.5c-25.872,0-51.271,7.766-72.275,22.872
		c-21.452,15.427-37.017,36.915-44.98,62.072c-4.193,13.244-16.302,22.375-30.194,22.375h-7.251
		c-10.722,0-19.414,8.692-19.414,19.414s8.692,19.414,19.414,19.414h6.969c4.63,0,9.17-0.452,13.579-1.304
		C40.179,340.503,35,333.46,35,325.191z"/>
	<path style="fill:#FF9911;" d="M440.154,295.402c-10.868-34.75-42.673-58.116-79.06-58.116h-27.5
		c36.387,0,68.192,23.366,79.06,58.116c9.089,29.061,35.5,49.203,65.949,49.203h6.483c2.558,0,4.994-0.507,7.23-1.406
		C467.9,338.159,447.837,319.969,440.154,295.402z"/>
</g>
<path style="fill:#EB358A;" d="M256,8.034c0,0-72.104,26.07-72.104,73.779c0,22.029,17.858,39.888,39.888,39.888
	c13.237,0,24.961-6.452,32.217-16.378c7.256,9.926,18.98,16.378,32.217,16.378c22.029,0,39.888-17.858,39.888-39.888
	C328.104,34.105,256,8.034,256,8.034z"/>
<path style="fill:#943EC7;" d="M208.918,81.813c0-35.064,38.948-58.439,59.593-68.367C261.066,9.866,256,8.034,256,8.034
	s-72.104,26.07-72.104,73.779c0,22.029,17.858,39.888,39.888,39.888c4.37,0,8.569-0.716,12.503-2.016
	C220.392,114.434,208.918,99.468,208.918,81.813z"/>
<g>
	<path style="fill:#78BAEC;" d="M256,105.322c-4.16,5.691-9.793,10.231-16.333,13.077v80.059h32.667v-80.059
		C265.793,115.554,260.16,111.013,256,105.322z"/>
	<rect x="239.67" y="237.269" style="fill:#78BAEC;" width="32.667" height="267.17"/>
</g>
<g>
	<path style="fill:#016EF1;" d="M256,118.399c2.925-1.273,5.655-2.901,8.167-4.803c-3.104-2.351-5.867-5.128-8.167-8.274
		c-4.16,5.691-9.793,10.231-16.333,13.077v80.059H256V118.399z"/>
	<rect x="239.67" y="237.269" style="fill:#016EF1;" width="16.333" height="267.17"/>
</g>
<g>
	<polygon style="fill:#FEDA44;" points="239.667,504.439 189,504.439 189,432.604 239.667,397.604 	"/>
	<polygon style="fill:#FEDA44;" points="272.333,504.439 323,504.439 323,432.604 272.333,397.604 	"/>
</g>
<g>
	<polygon style="fill:#FF9911;" points="272.333,397.604 272.333,504.439 291.083,504.439 291.083,410.556 	"/>
	<polygon style="fill:#FF9911;" points="239.667,410.556 239.667,397.604 189,432.604 189,504.439 207.75,504.439 207.75,432.604 	
		"/>
</g>
<path d="M352.93,166.064c12.7,0,23.032-10.332,23.032-23.032s-10.332-23.033-23.032-23.033c-12.699,0-23.031,10.332-23.031,23.032
	S340.23,166.064,352.93,166.064z M352.93,134.999c4.429,0,8.032,3.603,8.032,8.032s-3.604,8.032-8.032,8.032
	s-8.031-3.603-8.031-8.032S348.501,134.999,352.93,134.999z"/>
<polygon points="130.644,113.87 145.644,113.87 145.644,98.149 161.364,98.149 161.364,83.149 145.644,83.149 145.644,67.428 
	130.644,67.428 130.644,83.149 114.923,83.149 114.923,98.149 130.644,98.149 "/>
<rect x="190.83" y="146.719" width="16.334" height="15"/>
<rect x="160.64" y="14.439" width="16.334" height="15"/>
<rect x="297.64" y="161.819" width="16.334" height="15"/>
<rect x="349.42" y="35.654" width="16.333" height="15"/>
<path d="M330.5,511.939v-83.27l-50.667-35v-50.176h163.649c10.599,5.544,22.568,8.611,35.12,8.611h6.483
	c14.841,0,26.914-12.074,26.914-26.914s-12.073-26.914-26.914-26.914h-5.313c-10.536,0-19.795-6.887-23.04-17.136
	c-8.459-26.725-24.969-49.51-47.743-65.893c-22.091-15.89-48.6-24.289-76.659-24.289h-52.498v-62.522
	c2.748,0.499,5.552,0.765,8.384,0.765c26.13,0,47.388-21.258,47.388-47.388c0-52.37-73.908-79.694-77.055-80.832L256,0.059
	l-2.55,0.922c-3.146,1.138-77.055,28.462-77.055,80.832c0,26.13,21.258,47.388,47.388,47.388c2.832,0,5.636-0.266,8.384-0.765
	v62.522h-50.553c-28.057,0-54.563,8.397-76.654,24.283c-22.777,16.381-39.29,39.168-47.752,65.897
	c-3.245,10.251-12.505,17.138-23.043,17.138h-7.251C12.073,298.277,0,310.35,0,325.191s12.073,26.914,26.914,26.914h6.97
	c12.818,0,25.027-3.068,35.835-8.611h162.448v50.176l-50.667,35v83.27L330.5,511.939 M191.396,81.813
	c0-37.132,52.334-60.708,64.609-65.724c12.283,5.002,64.6,28.502,64.6,65.724c0,17.858-14.529,32.388-32.388,32.388
	c-10.292,0-20.072-4.974-26.162-13.304L256,92.614l-6.055,8.283c-6.09,8.331-15.87,13.304-26.162,13.304
	C205.925,114.201,191.396,99.672,191.396,81.813z M247.167,122.997c3.17-1.799,6.138-3.962,8.833-6.455
	c2.695,2.493,5.663,4.655,8.833,6.455v67.961h-17.666V122.997z M89.987,328.493c8.342-8.584,14.792-19.171,18.574-31.219
	c9.855-31.395,39.052-52.488,72.65-52.488h50.956v83.707H89.987z M196.5,496.939v-60.4l35.667-24.638v17.687l-21.521,14.866
	l8.525,12.342l12.995-8.977v11.969l-21.521,14.866l8.525,12.342l12.995-8.977v18.921H196.5V496.939z M315.5,436.538v60.4h-35.667
	v-18.921l12.995,8.977l8.525-12.342l-21.521-14.866v-11.969l12.995,8.977l8.525-12.342l-21.521-14.866v-17.687L315.5,436.538z
	 M264.833,496.939h-17.666V383.307V244.786h17.666v138.521V496.939z M279.833,244.786h53.761c33.12,0,62.015,21.241,71.901,52.854
	c3.72,11.894,10.007,22.353,18.111,30.853H279.833V244.786z M181.614,205.958h150.717c24.897,0,48.377,7.423,67.899,21.466
	c20.132,14.481,34.726,34.622,42.202,58.243c5.228,16.514,20.234,27.609,37.341,27.609h5.313c6.569,0,11.914,5.345,11.914,11.914
	s-5.345,11.914-11.914,11.914h-6.483c-10.549,0-20.584-2.717-29.391-7.588v-1.023h-1.779c-12.834-7.673-22.838-20.037-27.621-35.33
	c-11.854-37.908-46.503-63.377-86.218-63.377l0,0l0,0H181.211l0,0l0,0c-19.462,0-38.07,5.983-53.812,17.302
	c-15.89,11.426-27.353,27.227-33.149,45.693c-8.323,26.511-32.582,44.323-60.366,44.323h-6.97c-6.569,0-11.914-5.345-11.914-11.914
	s5.345-11.914,11.914-11.914h7.251c17.108,0,32.116-11.096,37.344-27.611c7.479-23.625,22.074-43.766,42.209-58.247
	C133.241,213.379,156.72,205.958,181.614,205.958"/>
<g>
	<rect x="223.25" y="209.439" style="fill:#FFFFFF;" width="103" height="15"/>
	<rect x="185.75" y="209.439" style="fill:#FFFFFF;" width="26.5" height="15"/>
</g>
<path d="M300.574,51.123c-8.287-8.56-18.953-16.569-31.7-23.805l-7.404,13.045c11.504,6.53,21.034,13.66,28.327,21.193
	L300.574,51.123z"/>
<g>
	<path style="fill:#FFFFFF;" d="M211.5,81.492h-15c0,10.779,6.335,20.645,16.139,25.133l6.244-13.639
		C214.397,90.933,211.5,86.422,211.5,81.492z"/>
	<path style="fill:#FFFFFF;" d="M224.13,94.123v15c6.232,0,12.345-2.136,17.211-6.014l-9.35-11.73
		C229.738,93.174,227.021,94.123,224.13,94.123z"/>
	<rect x="248.5" y="134.439" style="fill:#FFFFFF;" width="15" height="48.25"/>
	<rect x="248.5" y="299.609" style="fill:#FFFFFF;" width="15" height="156.83"/>
	<rect x="248.5" y="257.439" style="fill:#FFFFFF;" width="15" height="30.17"/>
</g>
<g>
</g>
<g>
</g>
<g>
</g>
<g>
</g>
<g>
</g>
<g>
</g>
<g>
</g>
<g>
</g>
<g>
</g>
<g>
</g>
<g>
</g>
<g>
</g>
<g>
</g>
<g>
</g>
<g>
</g>
</svg>
